<?xml version="1.0" encoding="utf-8"?>
<!-- Generator: Adobe Illustrator 25.2.1, SVG Export Plug-In . SVG Version: 6.00 Build 0)  -->
<svg version="1.1" id="Layer_1" xmlns="http://www.w3.org/2000/svg" xmlns:xlink="http://www.w3.org/1999/xlink" x="0px" y="0px"
	 viewBox="0 0 814 222" style="enable-background:new 0 0 814 222;" xml:space="preserve">
<style type="text/css">
	.st0{fill:#BE1E2D;}
</style>
<g>
	<path d="M75.92,118.94c0.08,23.81,19.51,43.15,43.32,43.12c11.55-0.02,22.41-4.53,30.57-12.71c8.16-8.18,12.64-19.05,12.63-30.61
		c-0.03-23.81-19.43-43.18-43.24-43.19l-14.48-0.01l0.08,22.79l14.4,0.02c11.26,0,20.43,9.17,20.45,20.43
		c0.01,5.46-2.11,10.6-5.97,14.47s-8.99,6-14.46,6.01c-11.26,0.02-20.45-9.13-20.49-20.39"/>
</g>
<g>
	<path class="st0" d="M104.71,98.33l14.48-0.01c23.81-0.01,43.21-19.39,43.24-43.19c0.02-11.55-4.47-22.42-12.63-30.61
		c-8.16-8.18-19.01-12.7-30.57-12.71C95.43,11.77,76,31.11,75.92,54.92l-0.21,63.95c-0.04,11.26-9.23,20.41-20.49,20.39
		c-11.28-0.02-20.44-9.21-20.43-20.49c0.01-5.64,2.31-10.75,6.02-14.45c3.7-3.69,8.8-5.98,14.43-5.98l14.39-0.03l0.1-22.81
		l-14.5,0.04C31.43,75.55,12.03,94.92,12,118.73c-0.03,23.85,19.34,43.28,43.19,43.32c11.92,0.02,22.74-4.82,30.59-12.65
		c7.83-7.8,12.69-18.58,12.73-30.47l0.21-63.95c0.04-11.26,9.23-20.41,20.49-20.39c5.46,0.01,10.6,2.14,14.46,6.01
		s5.98,9.01,5.97,14.47c-0.02,11.26-9.19,20.42-20.45,20.43l-14.4,0.02L104.71,98.33z"/>
</g>
<path d="M190.92,130.9c2.09,10.63,9.06,14.47,17.26,14.47c6.97,0,16.21-2.61,24.58-6.8l7.84,18.13c-9.76,4.36-22.31,6.28-33.82,6.28
	c-26.67,0-40.79-19.35-40.79-41.49c0-18.48,8.54-43.05,39.57-43.05c30.33,0,40.09,16.04,40.09,52.47H190.92z M205.74,96.74
	c-3.49,0-14.12,0.87-14.64,16.56h30.68C220.55,100.05,213.58,96.74,205.74,96.74z"/>
<path d="M291.42,173.26c-5.23,13.94-14.47,26.84-33.29,33.12l-8.19-19.35c9.59-2.61,13.6-6.62,15.34-11.33l6.97-18.48l-30.15-76.35
	h25.45l16.39,49.5l17.43-49.5h25.1L291.42,173.26z"/>
<path d="M363.9,163.15c-29.81,0-41.49-19.87-41.49-42.88c0-22.14,11.85-42.01,41.49-42.01c30.15,0,41.31,18.83,41.31,42.01
	C405.21,143.1,393.53,163.15,363.9,163.15z M363.9,96.39c-10.46,0-17.08,4.36-17.08,23.88c0,17.43,6.27,24.75,17.08,24.75
	c9.24,0,16.91-5.4,16.91-24.75C380.81,100.75,374.88,96.39,363.9,96.39z"/>
<path d="M461.89,160.53v-51.77c0-5.58,0-12.38-9.76-12.38c-7.15,0-11.85,8.19-15.86,15.86v48.28h-23.88V97.78
	c0-6.62-1.4-11.68-2.27-16.91h22.14l3.49,9.76c3.49-3.31,10.28-12.38,20.74-12.38c24.4,0,29.29,13.77,29.29,32.07v50.2H461.89z"/>
<path d="M550.83,160.53l-3.49-7.32c-1.74,3.31-7.49,9.76-17.61,9.76c-27.54,0-36.78-19.87-36.78-42.71
	c0-21.96,9.94-41.83,33.12-41.83c9.24,0,15.86,5.75,20.74,12.2V46.01h23.88v90.12c0,10.11,1.05,15.16,2.27,24.4H550.83z
	 M547.17,112.95c-5.06-8.37-9.24-16.21-15.69-16.21c-7.49,0-14.12,3.14-14.12,23.88c0,21.09,6.62,24.05,16.56,24.05
	c6.1,0,10.28-5.23,13.25-12.38V112.95z"/>
<path d="M632.96,160.53c-0.17,0-3.14-7.67-3.14-7.32c-4.53,3.49-11.85,9.76-19.87,9.76c-22.31,0-32.07-8.54-32.07-23.36
	c0-16.21,10.28-29.98,44.27-29.98h6.1v-2.61c0-3.83,0-10.28-9.06-10.28c-10.98,0-22.48,3.31-30.15,6.97l-8.19-19.52
	c11.85-4.01,27.19-5.75,39.92-5.75c18.3,0,31.55,8.02,31.55,25.45v32.25c0,6.28,2.44,15.86,3.49,24.4H632.96z M628.43,126.72h-3.83
	c-15.69,0-21.96,4.01-21.96,11.85c0,5.75,6.97,6.1,12.2,6.1c5.06,0,10.63-5.4,13.59-8.71V126.72z"/>
<path d="M712.97,160.53v-51.77c0-5.58,0-12.38-9.76-12.38c-7.15,0-11.85,8.19-15.86,15.86v48.28h-23.88V97.78
	c0-6.62-1.39-11.68-2.27-16.91h22.14l3.49,9.76c3.49-3.31,10.28-12.38,20.74-12.38c24.4,0,29.28,13.77,29.28,32.07v50.2H712.97z"/>
<path d="M786.11,179.71c-16.56-6.28-31.38-16.21-31.38-39.22V99.18h-12.03V80.7h12.03V58.91h23.71V80.7h15.34v18.48h-15.34v43.75
	c0,10.28,4.53,13.94,16.56,17.43L786.11,179.71z"/>
</svg>
